<?xml version="1.0" encoding="UTF-8"?>
<svg xmlns="http://www.w3.org/2000/svg" xmlns:xlink="http://www.w3.org/1999/xlink" id="visual" viewBox="0 0 1920 1080" width="1920" height="1080" version="1.1">
  <rect x="0" y="0" width="1920" height="1080" fill="#1c1f20"></rect>
  <defs>
    <linearGradient id="grad1_0" x1="43.8%" y1="0%" x2="100%" y2="100%">
      <stop offset="14.444444444444446%" stop-color="#ff8040" stop-opacity="1"></stop>
      <stop offset="85.55555555555554%" stop-color="#ff8040" stop-opacity="1"></stop>
    </linearGradient>
  </defs>
  <defs>
    <linearGradient id="grad1_1" x1="43.8%" y1="0%" x2="100%" y2="100%">
      <stop offset="14.444444444444446%" stop-color="#ff8040" stop-opacity="1"></stop>
      <stop offset="85.55555555555554%" stop-color="#be831c" stop-opacity="1"></stop>
    </linearGradient>
  </defs>
  <defs>
    <linearGradient id="grad1_2" x1="43.8%" y1="0%" x2="100%" y2="100%">
      <stop offset="14.444444444444446%" stop-color="#827d1b" stop-opacity="1"></stop>
      <stop offset="85.55555555555554%" stop-color="#be831c" stop-opacity="1"></stop>
    </linearGradient>
  </defs>
  <defs>
    <linearGradient id="grad1_3" x1="43.8%" y1="0%" x2="100%" y2="100%">
      <stop offset="14.444444444444446%" stop-color="#827d1b" stop-opacity="1"></stop>
      <stop offset="85.55555555555554%" stop-color="#4f702c" stop-opacity="1"></stop>
    </linearGradient>
  </defs>
  <defs>
    <linearGradient id="grad1_4" x1="43.8%" y1="0%" x2="100%" y2="100%">
      <stop offset="14.444444444444446%" stop-color="#265e3a" stop-opacity="1"></stop>
      <stop offset="85.55555555555554%" stop-color="#4f702c" stop-opacity="1"></stop>
    </linearGradient>
  </defs>
  <defs>
    <linearGradient id="grad1_5" x1="43.8%" y1="0%" x2="100%" y2="100%">
      <stop offset="14.444444444444446%" stop-color="#265e3a" stop-opacity="1"></stop>
      <stop offset="85.55555555555554%" stop-color="#0f493e" stop-opacity="1"></stop>
    </linearGradient>
  </defs>
  <defs>
    <linearGradient id="grad1_6" x1="43.8%" y1="0%" x2="100%" y2="100%">
      <stop offset="14.444444444444446%" stop-color="#163435" stop-opacity="1"></stop>
      <stop offset="85.55555555555554%" stop-color="#0f493e" stop-opacity="1"></stop>
    </linearGradient>
  </defs>
  <defs>
    <linearGradient id="grad1_7" x1="43.8%" y1="0%" x2="100%" y2="100%">
      <stop offset="14.444444444444446%" stop-color="#163435" stop-opacity="1"></stop>
      <stop offset="85.55555555555554%" stop-color="#1c1f20" stop-opacity="1"></stop>
    </linearGradient>
  </defs>
  <defs>
    <linearGradient id="grad2_0" x1="0%" y1="0%" x2="56.3%" y2="100%">
      <stop offset="14.444444444444446%" stop-color="#ff8040" stop-opacity="1"></stop>
      <stop offset="85.55555555555554%" stop-color="#ff8040" stop-opacity="1"></stop>
    </linearGradient>
  </defs>
  <defs>
    <linearGradient id="grad2_1" x1="0%" y1="0%" x2="56.3%" y2="100%">
      <stop offset="14.444444444444446%" stop-color="#be831c" stop-opacity="1"></stop>
      <stop offset="85.55555555555554%" stop-color="#ff8040" stop-opacity="1"></stop>
    </linearGradient>
  </defs>
  <defs>
    <linearGradient id="grad2_2" x1="0%" y1="0%" x2="56.3%" y2="100%">
      <stop offset="14.444444444444446%" stop-color="#be831c" stop-opacity="1"></stop>
      <stop offset="85.55555555555554%" stop-color="#827d1b" stop-opacity="1"></stop>
    </linearGradient>
  </defs>
  <defs>
    <linearGradient id="grad2_3" x1="0%" y1="0%" x2="56.3%" y2="100%">
      <stop offset="14.444444444444446%" stop-color="#4f702c" stop-opacity="1"></stop>
      <stop offset="85.55555555555554%" stop-color="#827d1b" stop-opacity="1"></stop>
    </linearGradient>
  </defs>
  <defs>
    <linearGradient id="grad2_4" x1="0%" y1="0%" x2="56.3%" y2="100%">
      <stop offset="14.444444444444446%" stop-color="#4f702c" stop-opacity="1"></stop>
      <stop offset="85.55555555555554%" stop-color="#265e3a" stop-opacity="1"></stop>
    </linearGradient>
  </defs>
  <defs>
    <linearGradient id="grad2_5" x1="0%" y1="0%" x2="56.3%" y2="100%">
      <stop offset="14.444444444444446%" stop-color="#0f493e" stop-opacity="1"></stop>
      <stop offset="85.55555555555554%" stop-color="#265e3a" stop-opacity="1"></stop>
    </linearGradient>
  </defs>
  <defs>
    <linearGradient id="grad2_6" x1="0%" y1="0%" x2="56.3%" y2="100%">
      <stop offset="14.444444444444446%" stop-color="#0f493e" stop-opacity="1"></stop>
      <stop offset="85.55555555555554%" stop-color="#163435" stop-opacity="1"></stop>
    </linearGradient>
  </defs>
  <defs>
    <linearGradient id="grad2_7" x1="0%" y1="0%" x2="56.3%" y2="100%">
      <stop offset="14.444444444444446%" stop-color="#1c1f20" stop-opacity="1"></stop>
      <stop offset="85.55555555555554%" stop-color="#163435" stop-opacity="1"></stop>
    </linearGradient>
  </defs>
  <g transform="translate(1920, 0)">
    <path d="M0 870C-109.4 863.5 -218.7 857 -345.6 834.3C-472.4 811.6 -616.7 772.6 -681.7 681.7C-746.6 590.7 -732.1 447.6 -785.3 325.3C-838.5 203 -959.2 101.5 -1080 0L0 0Z" fill="#1a292c"></path>
    <path d="M0 761.3C-95.7 755.6 -191.4 749.9 -302.4 730C-413.4 710.1 -539.6 676.1 -596.4 596.4C-653.3 516.8 -640.6 391.6 -687.1 284.6C-733.7 177.6 -839.3 88.8 -945 0L0 0Z" fill="#113f3b"></path>
    <path d="M0 652.5C-82 647.6 -164 642.7 -259.2 625.7C-354.3 608.7 -462.5 579.5 -511.2 511.2C-559.9 443 -549.1 335.7 -589 244C-628.8 152.2 -719.4 76.1 -810 0L0 0Z" fill="#17543e"></path>
    <path d="M0 543.8C-68.4 539.7 -136.7 535.6 -216 521.4C-295.3 507.2 -385.4 482.9 -426 426C-466.6 369.2 -457.6 279.7 -490.8 203.3C-524 126.9 -599.5 63.4 -675 0L0 0Z" fill="#396734"></path>
    <path d="M0 435C-54.7 431.7 -109.4 428.5 -172.8 417.1C-236.2 405.8 -308.4 386.3 -340.8 340.8C-373.3 295.3 -366.1 223.8 -392.6 162.6C-419.2 101.5 -479.6 50.7 -540 0L0 0Z" fill="#677723"></path>
    <path d="M0 326.3C-41 323.8 -82 321.4 -129.6 312.8C-177.2 304.3 -231.3 289.7 -255.6 255.6C-280 221.5 -274.6 167.8 -294.5 122C-314.4 76.1 -359.7 38.1 -405 0L0 0Z" fill="#9f8217"></path>
    <path d="M0 217.5C-27.3 215.9 -54.7 214.2 -86.4 208.6C-118.1 202.9 -154.2 193.2 -170.4 170.4C-186.6 147.7 -183 111.9 -196.3 81.3C-209.6 50.7 -239.8 25.4 -270 0L0 0Z" fill="#df832b"></path>
    <path d="M0 108.8C-13.7 107.9 -27.3 107.1 -43.2 104.3C-59.1 101.4 -77.1 96.6 -85.2 85.2C-93.3 73.8 -91.5 55.9 -98.2 40.7C-104.8 25.4 -119.9 12.7 -135 0L0 0Z" fill="#ff8040"></path>
  </g>
  <g transform="translate(0, 1080)">
    <path d="M0 -982C93.1 -893.8 186.3 -805.6 326.8 -789C467.4 -772.4 655.4 -827.3 763.7 -763.7C872 -700 900.6 -517.9 895.2 -370.8C889.8 -223.8 850.4 -111.9 811 0L0 0Z" fill="#1a292c"></path>
    <path d="M0 -859.2C81.5 -782.1 163 -704.9 286 -690.4C408.9 -675.8 573.4 -723.9 668.2 -668.2C763 -612.5 788.1 -453.1 783.3 -324.5C778.6 -195.8 744.1 -97.9 709.6 0L0 0Z" fill="#113f3b"></path>
    <path d="M0 -736.5C69.8 -670.4 139.7 -604.2 245.1 -591.7C350.5 -579.3 491.5 -620.5 572.8 -572.8C654 -525 675.5 -388.4 671.4 -278.1C667.4 -167.8 637.8 -83.9 608.3 0L0 0Z" fill="#17543e"></path>
    <path d="M0 -613.7C58.2 -558.6 116.4 -503.5 204.3 -493.1C292.1 -482.7 409.6 -517.1 477.3 -477.3C545 -437.5 562.9 -323.7 559.5 -231.8C556.2 -139.9 531.5 -69.9 506.9 0L0 0Z" fill="#396734"></path>
    <path d="M0 -491C46.6 -446.9 93.1 -402.8 163.4 -394.5C233.7 -386.2 327.7 -413.7 381.8 -381.8C436 -350 450.3 -258.9 447.6 -185.4C444.9 -111.9 425.2 -55.9 405.5 0L0 0Z" fill="#677723"></path>
    <path d="M0 -368.2C34.9 -335.2 69.8 -302.1 122.6 -295.9C175.3 -289.6 245.8 -310.2 286.4 -286.4C327 -262.5 337.7 -194.2 335.7 -139.1C333.7 -83.9 318.9 -42 304.1 0L0 0Z" fill="#9f8217"></path>
    <path d="M0 -245.5C23.3 -223.5 46.6 -201.4 81.7 -197.2C116.8 -193.1 163.8 -206.8 190.9 -190.9C218 -175 225.2 -129.5 223.8 -92.7C222.5 -55.9 212.6 -28 202.8 0L0 0Z" fill="#df832b"></path>
    <path d="M0 -122.7C11.6 -111.7 23.3 -100.7 40.9 -98.6C58.4 -96.5 81.9 -103.4 95.5 -95.5C109 -87.5 112.6 -64.7 111.9 -46.4C111.2 -28 106.3 -14 101.4 0L0 0Z" fill="#ff8040"></path>
  </g>
</svg>
